<svg xmlns="http://www.w3.org/2000/svg" viewBox="0 0 49.85 49.85"><title>address_icon</title><g id="Layer_2" data-name="Layer 2"><g id="Layer_6" data-name="Layer 6"><circle cx="24.92" cy="24.92" r="24.92" style="fill:#ef4645;opacity:0.15"/><path d="M25.14,36.14h0a.81.81,0,0,1-.57-.25c-.33-.36-8.14-8.82-8.14-13.46a8.72,8.72,0,1,1,17.43,0c0,4.64-7.81,13.1-8.15,13.46A.81.81,0,0,1,25.14,36.14Zm0-20.87A7.17,7.17,0,0,0,18,22.43c0,3.08,4.73,9,7.16,11.77,2.43-2.74,7.16-8.69,7.16-11.77A7.17,7.17,0,0,0,25.14,15.27Z" style="fill:#ef4645"/><path d="M25.14,26a3.92,3.92,0,1,1,3.93-3.92A3.93,3.93,0,0,1,25.14,26Zm0-6.29a2.37,2.37,0,1,0,2.37,2.37A2.37,2.37,0,0,0,25.14,19.68Z" style="fill:#ef4645"/></g></g></svg>