<svg xmlns="http://www.w3.org/2000/svg" viewBox="0 0 16.17 18.91">
    <defs>
        <pattern id="b84bf220-ea23-461e-81dc-c91ee2b694ce" data-name="New Pattern Swatch 4"
            width="48.45" height="48.45" patternTransform="translate(-16.02 -2.21)"
            patternUnits="userSpaceOnUse" viewBox="0 0 48.45 48.45">
            <rect width="48.45" height="48.45" style="fill:none" />
            <polygon points="0 48.45 0 0 48.45 0 48.45 48.45 0 48.45" style="fill:#ef4645" />
        </pattern>
    </defs>
    <title>delete_icon</title>
    <g id="b850c310-184a-450c-b78c-de5813ada44d" data-name="Layer 2">
        <g id="b2e7e402-a929-44bd-a453-ce9a7a0f7684" data-name="Layer 8">
            <path
                d="M16.16,4.71c0-.27-.11-.46-.4-.49s-.33-.14-.35-.38c-.09-.79-.38-1-1.17-1-.63,0-1.27,0-1.9,0s-.5,0-.56-.51A2.51,2.51,0,0,0,9.48,0V0h-3A2.58,2.58,0,0,0,4.37,2.57c0,.29-.09.36-.38.36-.75,0-1.51,0-2.27,0s-.94.19-1,1c0,.34,0,.58-.46.49C.07,4.31,0,4.43,0,4.64c0,.38-.1.86.08,1.1s.69.11,1,.08.35.13.35.4c0,3.46,0,6.93,0,10.39A2.15,2.15,0,0,0,3,18.78c.07,0,.17,0,.2.13h.08c0-.09.1-.09.17-.09l9.44,0v0a1.31,1.31,0,0,0,.88-.32,2.33,2.33,0,0,0,.93-1.88c0-3.31,0-6.62,0-9.93,0-.79,0-.75.73-.77s.78-.15.79-.8C16.17,5,16.17,4.86,16.16,4.71ZM5.87,2.58A1.08,1.08,0,0,1,7,1.49c.69,0,1.38,0,2.06,0a1.1,1.1,0,0,1,1.12,1.2c0,.2-.07.23-.25.23H8c-.62,0-1.24,0-1.85,0C5.88,2.94,5.85,2.81,5.87,2.58Zm7.25,3.58c0,1.75,0,3.5,0,5.26h0c0,1.71,0,3.42,0,5.13,0,.68-.19.88-.87.89H3.79c-.6,0-.82-.21-.82-.77,0-3.52,0-7-.06-10.56,0-.23.08-.28.29-.28h9.64C13.12,5.83,13.12,6,13.12,6.16Z"
                style="fill:url(#b84bf220-ea23-461e-81dc-c91ee2b694ce)" />
            <path
                d="M5.78,7.34c-.21-.21-.67,0-1-.06s-.37.06-.37.36c0,2.41,0,4.83,0,7.24,0,.36-.16.84.08,1s.67,0,1,.06.35-.06.35-.34c0-1.34,0-2.67,0-4,0-1.1,0-2.19,0-3.29C5.84,8,6,7.55,5.78,7.34Z"
                style="fill:url(#b84bf220-ea23-461e-81dc-c91ee2b694ce)" />
            <path
                d="M8.68,7.35c-.21-.18-.67,0-1-.08s-.39.06-.39.38c0,2.42,0,4.83,0,7.24,0,.35-.12.81.06,1s.69,0,1,.08.38-.06.38-.36c0-1.32,0-2.63,0-3.95,0-1.11,0-2.22,0-3.32C8.74,8,8.9,7.53,8.68,7.35Z"
                style="fill:url(#b84bf220-ea23-461e-81dc-c91ee2b694ce)" />
            <path
                d="M11.57,7.34c-.2-.17-.65,0-1-.07s-.39.07-.39.39c0,2.44,0,4.88,0,7.32,0,.32-.11.75.06.93s.63,0,1,.07.43-.06.42-.4c0-1.32,0-2.64,0-4,0-1.09,0-2.18,0-3.28C11.64,8,11.8,7.54,11.57,7.34Z"
                style="fill:url(#b84bf220-ea23-461e-81dc-c91ee2b694ce)" />
        </g>
    </g>
</svg>