<svg xmlns="http://www.w3.org/2000/svg" viewBox="0 0 18.11 17.85">
    <defs>
        <pattern id="New_Pattern_Swatch_4"  width="48.45"
            height="48.45" patternTransform="translate(-16.02 -2.21)" patternUnits="userSpaceOnUse"
            viewBox="0 0 48.45 48.45">
            <rect width="48.45" height="48.45" style="fill:none" />
            <polygon points="0 48.45 0 0 48.45 0 48.45 48.45 0 48.45" style="fill:#ef4645" />
        </pattern>
    </defs>
    <title>edit</title>
    <g id="Layer_2" >
        <g id="Layer_8" >
            <path
                d="M16.89,4.6c-.08.08-.13.09-.21,0L13.42,1.34c-.08-.08-.09-.12,0-.2.24-.22.46-.46.7-.68a1.55,1.55,0,0,1,2.2,0c.38.37.75.75,1.13,1.13l.32.33a1.35,1.35,0,0,1-.05,1.86C17.43,4.05,17.15,4.31,16.89,4.6Z"
                style="fill:url(#New_Pattern_Swatch_4)" />
            <path
                d="M16.13,5.38,16,5.47l-5.9,5.9L9,12.46c-.08.09-.12.09-.21,0L5.56,9.22c-.09-.09-.09-.14,0-.23q3.53-3.51,7-7c.09-.08.13-.09.22,0l3.25,3.26A.18.18,0,0,1,16.13,5.38Z"
                style="fill:url(#New_Pattern_Swatch_4)" />
            <path d="M8.15,13.27H5c-.09,0-.11,0-.11-.12V9.82Z"
                style="fill:url(#New_Pattern_Swatch_4)" />
            <path d="M8.7,1.4H2.79a2,2,0,0,0-2,2V15.07a2,2,0,0,0,2,2H14.62a2,2,0,0,0,2-2V8.42"
                style="fill:none;stroke-miterlimit:10;stroke-width:1.5px;stroke:url(#New_Pattern_Swatch_4)" />
        </g>
    </g>
</svg>