<svg xmlns="http://www.w3.org/2000/svg" viewBox="0 0 49.85 49.85">
    <title>email_icon</title>
    <g id="Layer_2" data-name="Layer 2">
        <g id="Layer_6" data-name="Layer 6">
            <circle cx="24.92" cy="24.92" r="24.92" style="fill:#ef4645;opacity:0.15" />
            <path
                d="M33.32,15.65H16.53a3.41,3.41,0,0,0-3.41,3.41V30.79a3.41,3.41,0,0,0,3.41,3.41H33.32a3.41,3.41,0,0,0,3.41-3.41V19.06A3.41,3.41,0,0,0,33.32,15.65Zm0,1.63a1.84,1.84,0,0,1,.41,0l-7.09,8a2.29,2.29,0,0,1-3.43,0l-7.09-8a1.84,1.84,0,0,1,.41,0ZM35.1,30.79a1.78,1.78,0,0,1-1.78,1.78H16.53a1.78,1.78,0,0,1-1.78-1.78V19.06a1.82,1.82,0,0,1,.13-.67L22,26.44a3.9,3.9,0,0,0,5.87,0l7.11-8a1.82,1.82,0,0,1,.13.67Z"
                style="fill:#ef4645" />
        </g>
    </g>
</svg>