<svg xmlns="http://www.w3.org/2000/svg" viewBox="0 0 26.28 20.23">
    <title>email_1_icon</title>
    <g id="Layer_2" data-name="Layer 2">
        <g id="sign_in" data-name="sign in">
            <path
                d="M2,.28l9.13,10.36a2.72,2.72,0,0,0,4.1,0l9-10.18a1,1,0,0,1,.25-.2A3,3,0,0,0,23.18,0H3.1A3.16,3.16,0,0,0,1.91.24Z"
                style="fill:#fff" />
            <path
                d="M25.8,1.45a.9.9,0,0,1-.17.3l-9,10.18a4.67,4.67,0,0,1-7,0L.49,1.57a.43.43,0,0,1,0-.07A3.13,3.13,0,0,0,0,3.1v14a3.1,3.1,0,0,0,3.1,3.1H23.18a3.1,3.1,0,0,0,3.1-3.1V3.1A3.12,3.12,0,0,0,25.8,1.45Z"
                style="fill:#fff" />
        </g>
    </g>
</svg>