<svg xmlns="http://www.w3.org/2000/svg" viewBox="0 0 26.76 27.32"><title>google_icon</title><g id="Layer_2" data-name="Layer 2"><g id="sign_in" data-name="sign in"><g id="G"><path d="M24.8,21.44A9.94,9.94,0,0,1,22.7,24c-4.76-3.7-3.86-3-4.29-3.38A6.7,6.7,0,0,0,21,16.83c.09-.3.06-.41-.31-.41-2.2,0-4.4,0-6.6,0-.46,0-.46,0-.46-.48,0-1.49,0-3,0-4.48,0-.28.05-.39.37-.39H26.17c.22,0,.35,0,.39.28A15,15,0,0,1,24.8,21.44Z" style="fill:#6187c5;fill-rule:evenodd"/><path d="M22.7,24a11.42,11.42,0,0,1-5.12,2.8A13.77,13.77,0,0,1,5.07,24.27a12.6,12.6,0,0,1-3.61-4.51L5.92,16.3a9.15,9.15,0,0,0,1.67,2.86,8.36,8.36,0,0,0,10.82,1.46C18.82,21,17.93,20.29,22.7,24Z" style="fill:#51b95d;fill-rule:evenodd"/><path d="M5.92,16.3,1.46,19.76a13.48,13.48,0,0,1,0-12.23C6.4,11.34,5.66,10.77,6,11A8.55,8.55,0,0,0,5.92,16.3Z" style="fill:#ffcc2a;fill-rule:evenodd"/><path d="M22.56,3.81C18.74,7.55,19,7.52,18.76,7.27,14.92,3.75,8.09,5.09,6,11c-.29-.19.48.39-4.48-3.43A13.52,13.52,0,0,1,11.35.2,13.18,13.18,0,0,1,22.53,3.31C22.74,3.49,22.79,3.59,22.56,3.81Z" style="fill:#e83e3e;fill-rule:evenodd"/></g></g></g></svg>