<svg xmlns="http://www.w3.org/2000/svg" viewBox="0 0 47.84 52">
    <title>lab_icon</title>
    <g id="e74fd9f5-260e-4698-bfff-a8dddbc63ebd" data-name="Layer 2">
        <g id="f9d98d3e-fa3d-4401-85a5-79155d3950d1" data-name="dashboard_std">
            <path
                d="M47.1,42.8A6.26,6.26,0,0,1,41.58,52H6.22A6.28,6.28,0,0,1,.86,49,6.46,6.46,0,0,1,.7,42.8L14.38,17.6v-15A2.6,2.6,0,0,1,16.94,0H30.86A2.66,2.66,0,0,1,33.5,2.64v15Z"
                style="fill:#bcd2e4" />
            <path
                d="M26.22,32.32h0A2.17,2.17,0,0,0,24,34.48a2.2,2.2,0,1,0,4.4,0,2.15,2.15,0,0,0-2.16-2.16Z"
                style="fill:#ef4645" />
            <path d="M19.9,19h0a2.2,2.2,0,0,0,0,4.4,2.2,2.2,0,1,0,0-4.4Z" style="fill:#ef4645" />
            <path d="M19.9,26.72h0a3.56,3.56,0,0,0,0,7.12,3.56,3.56,0,1,0,0-7.12Z"
                style="fill:#ef4645" />
            <path
                d="M40.54,45.12h0a2.62,2.62,0,0,0,0-2.56L38.06,38a2.6,2.6,0,0,0-3.51-1,15.5,15.5,0,0,1-7,2.16c-4.64.24-9.76-3.76-14.4-4.16a2.62,2.62,0,0,0-2.48,1.28L7.26,42.56a2.46,2.46,0,0,0,0,2.56,2.66,2.66,0,0,0,2.24,1.2H38.31a2.65,2.65,0,0,0,2.23-1.2Z"
                style="fill:#ef4645" />
        </g>
    </g>
</svg>