<svg viewBox="0 0 110.44 112.6" xmlns="http://www.w3.org/2000/svg">
    <title>logo</title>
    <g data-name="Layer 2" id="Layer_2">
        <g id="login">
            <polyline style="fill:none;stroke:#2f3335;stroke-miterlimit:10;stroke-width:0.667781829833984px"
                points="34.34 35.15 23.1 22.45 35.29 9.91 43.93 9.91" />
            <line style="fill:none;stroke:#2f3335;stroke-miterlimit:10;stroke-width:2px" x1="58.48" x2="34.34" y1="63.18"
                y2="35.15" />
            <ellipse style="fill:#2f3335" cx="43.86" cy="10.04" rx="1.44" ry="1.26" />
            <polyline style="fill:none;stroke:#2f3335;stroke-miterlimit:10;stroke-width:0.667781829833984px"
                points="82.63 35.15 93.87 22.45 81.68 9.91 73.03 9.91" />
            <path
                style="fill:none;stroke:#2f3335;stroke-miterlimit:10;stroke-width:2px"
                d="M82.63,35.15l-24.15,28V84.36a1.79,1.79,0,0,1-3.13,1.19L28.2,55.13a8.93,8.93,0,0,0-12.94-.37h0a8.92,8.92,0,0,0-.51,12.13l32.32,34.78" />
            <ellipse style="fill:#2f3335" cx="73.11" cy="10.04" rx="1.44" ry="1.26" />
            <text style="font-size:12px;fill:#2f3335;font-family:NexaBold"
                transform="translate(16.7 109)">MAN OF HEAL
            </text>
            <circle style="fill:#2f3335" cx="50.77" cy="104.41" r="1.81" />
            <path
                style="fill:#fff"
                d="M90.72,0H25.3L6.37,18.93,58.27,80l51.8-61.4ZM13.37,19.09l14-14H88.63L102.8,19,58.41,71.67Z" />
        </g>
    </g>
</svg>