<svg xmlns="http://www.w3.org/2000/svg" viewBox="0 0 49.85 49.85">
    <title>phone_icon</title>
    <g id="Layer_2" data-name="Layer 2">
        <g id="Layer_6" data-name="Layer 6">
            <circle cx="24.92" cy="24.92" r="24.92" style="fill:#ef4645;opacity:0.15" />
            <path
                d="M29.75,12.38H19.63a3.72,3.72,0,0,0-3.72,3.71V33.75a3.73,3.73,0,0,0,3.72,3.72H29.75a3.73,3.73,0,0,0,3.72-3.72V16.09A3.72,3.72,0,0,0,29.75,12.38ZM19.63,14.1H29.75a2,2,0,0,1,2,2V30.24H17.63V16.09A2,2,0,0,1,19.63,14.1ZM29.75,35.75H19.63a2,2,0,0,1-2-2V32H31.75v1.79A2,2,0,0,1,29.75,35.75Z"
                style="fill:#ef4645" />
            <path d="M24.46,16.56a.69.69,0,1,0-.69-.68A.69.69,0,0,0,24.46,16.56Z"
                style="fill:#ef4645" />
            <path d="M24.46,33a.69.69,0,0,0-.69.69.69.69,0,1,0,.69-.69Z" style="fill:#ef4645" />
        </g>
    </g>
</svg>