<svg xmlns="http://www.w3.org/2000/svg" width="43.28" height="20.499" viewBox="0 0 43.28 20.499"><defs><style>.a{fill:#fc2125;}</style></defs><path class="a" d="M2186.91,391.1a3.174,3.174,0,0,1-4.147,1.778,2.565,2.565,0,0,1-1.719-2.862c.21-1.09,1.033-1.388,1.61-1.865a2.032,2.032,0,0,0,.727-2.675,2.06,2.06,0,0,0-2.251-.968,2,2,0,0,0-1.284,2.687,3.255,3.255,0,0,1,.086,1.971c-.558,1.856-2.717,2.637-4.82,1.5a2.753,2.753,0,0,1-.678-4.132c1.247-1.556,2.428-3.466.412-5.49a17.505,17.505,0,0,1-2.349-2.555,17.493,17.493,0,0,1-2.349,2.555c-2.016,2.024-.836,3.934.412,5.49a2.753,2.753,0,0,1-.678,4.132c-2.1,1.137-4.262.356-4.82-1.5a3.252,3.252,0,0,1,.085-1.971,2,2,0,0,0-1.283-2.687,2.06,2.06,0,0,0-2.252.968,2.032,2.032,0,0,0,.727,2.675c.577.477,1.4.775,1.61,1.865a2.565,2.565,0,0,1-1.719,2.862,3.174,3.174,0,0,1-4.147-1.778c-1.072-2.319-.625-5.787-7.226-1.766,0,0,6.118,1.792,7.964,9.654a76.953,76.953,0,0,1,27.352,0c1.846-7.862,7.964-9.654,7.964-9.654C2187.54,385.314,2187.99,388.782,2186.91,391.1Zm-20.8,4.5a.857.857,0,1,1,.005,0Zm6.391-.5a1.356,1.356,0,1,1,1.356-1.356,1.356,1.356,0,0,1-1.356,1.356Zm6.391.5a.859.859,0,1,1,.86-.859.859.859,0,0,1-.86.859Z" transform="translate(-2150.856 -378.489)"/></svg>