<svg xmlns="http://www.w3.org/2000/svg" viewBox="0 0 41.84 41.84"><title>question_of_day_icon</title><g id="ad06c1d2-cbff-4ca6-aae0-fb84b3dff898" data-name="Layer 2"><g id="baf02560-1b82-4a5a-9f96-053935292012" data-name="dashboard_std"><circle cx="20.92" cy="20.92" r="20.92" style="fill:#ef4645"/><path d="M19.2,19.78h1.27a2.18,2.18,0,0,0,2.44-2.18,2.1,2.1,0,0,0-2.35-2.11,3.92,3.92,0,0,0-3.45,2.35l-2.88-2.71a7,7,0,0,1,6.53-3.88c3.82,0,6.5,2.62,6.5,6A5.79,5.79,0,0,1,23.14,23L23,25.42H19.44Zm-.67,10.76a2.66,2.66,0,1,1,2.67,2.71A2.63,2.63,0,0,1,18.53,30.54Z" style="fill:#fff"/></g></g></svg>