<svg xmlns="http://www.w3.org/2000/svg" viewBox="0 0 60.77 56.46"><title>questions_icon_icon</title><g id="b224333f-4466-4486-8ca7-f8f0cd817f3f" data-name="Layer 2"><g id="b4da5625-789a-468e-8e19-361fd26a7385" data-name="dashboard_std"><path d="M18,1.42,58.63,0a2.06,2.06,0,0,1,2.14,2.09l-.33,27a2.07,2.07,0,0,1-2.07,2h0A2.06,2.06,0,0,0,56.31,33l-.39,6.06a2.07,2.07,0,0,1-3.45,1.41l-10.07-9a2.09,2.09,0,0,0-1.34-.53l-23-.41a2.08,2.08,0,0,1-2-2.07V3.48A2.07,2.07,0,0,1,18,1.42Z" style="fill:#ef4645"/><path d="M33.36,12.23a4.71,4.71,0,0,1-1.2-3.06,4.15,4.15,0,0,1,1.65-3.4,6.65,6.65,0,0,1,4.25-1.31,6.9,6.9,0,0,1,4.49,1.46,4.52,4.52,0,0,1,1.79,3.64,4.71,4.71,0,0,1-.75,2.66A9.18,9.18,0,0,1,41,14.59l-1.73,1.17a5.92,5.92,0,0,0-1.52,1.48,2.57,2.57,0,0,0-.63,1.47l0,.9A.54.54,0,0,1,37,20a.46.46,0,0,1-.39.15c-.25,0-.48-.2-.68-.55a2.41,2.41,0,0,1-.29-1.19c0-1.5.83-3.09,2.49-4.79A15.42,15.42,0,0,0,40.37,11a4.16,4.16,0,0,0,.56-2.11,3.14,3.14,0,0,0-.82-2.26A3.09,3.09,0,0,0,36,6.48a2.2,2.2,0,0,0-.82,1.72,2.27,2.27,0,0,0,1.34,1.87l-.16.11-.89.51A13.48,13.48,0,0,0,33.36,12.23Zm5.2-1.88-.37.19a40.06,40.06,0,0,0-3.65,2.33l-.15.1-.26-.35.16-.11a32.22,32.22,0,0,1,3.41-2.16,2.56,2.56,0,0,1-1.34-2.22A1.45,1.45,0,0,1,36.9,7a2,2,0,0,1,1.34-.46A2.49,2.49,0,0,1,40.57,8.3h-.1A2.82,2.82,0,0,0,38.19,7q-1.41,0-1.41,1.26C36.78,9.14,37.37,9.84,38.56,10.35ZM38.15,21a2.15,2.15,0,0,1,2.13,2.13,2.13,2.13,0,0,1-2.13,2.12A2.12,2.12,0,0,1,36,23.08,2.13,2.13,0,0,1,38.15,21Zm2.67.69a2.74,2.74,0,0,1,.92,2.1,2.7,2.7,0,0,1-.83,2,2.74,2.74,0,0,1-4.08-.15l.1-.11a3.88,3.88,0,0,0,1.92.62,2.44,2.44,0,0,0,1.75-.71,2.26,2.26,0,0,0,.74-1.7,3.39,3.39,0,0,0-.65-1.88ZM43.33,5.43a5.39,5.39,0,0,1,2.41,4.51,5.51,5.51,0,0,1-1.18,3.37,21.78,21.78,0,0,1-3.51,3l-.92.68c-1.12.83-1.67,1.61-1.67,2.36a2.72,2.72,0,0,0,.44,1.34l-.59-.16A2.55,2.55,0,0,1,38,19.3a2.47,2.47,0,0,1,.59-1.59,11.22,11.22,0,0,1,2.15-1.81,15.76,15.76,0,0,0,3.63-3.12,5,5,0,0,0,1-3,5.24,5.24,0,0,0-.58-2.39,4.55,4.55,0,0,0-1.57-1.76Z" style="fill:#fff"/><circle cx="8.82" cy="36.74" r="2.42" style="fill:#ef4645;opacity:0.5"/><circle cx="16.53" cy="36.42" r="2.42" style="fill:#ef4645;opacity:0.5"/><circle cx="23.9" cy="36.45" r="2.42" style="fill:#ef4645;opacity:0.5"/><path d="M14.85,31.94v-4a1.51,1.51,0,0,0-1.53-1.51l-11.63.18A1.71,1.71,0,0,0,0,28.35L.34,47.47l.43.4,2.4-.15.47,8.74,9.76-9.13,17.88-.79v-13a1.61,1.61,0,0,0-1.61-1.61ZM9.36,38.8a2.16,2.16,0,1,1,1.56-1.56A2.17,2.17,0,0,1,9.36,38.8ZM17,38.52a2.17,2.17,0,0,1-2.63-2.64,2.13,2.13,0,0,1,1.56-1.55A2.16,2.16,0,0,1,17,38.52Zm7.45,0A2.16,2.16,0,1,1,26,37,2.18,2.18,0,0,1,24.44,38.52Z" style="fill:#bcd2e4"/></g></g></svg>