<svg xmlns="http://www.w3.org/2000/svg" viewBox="0 0 43.11 49.54"><title>quiz_icon</title><g id="bc917caf-b8c8-45c1-be08-0f17619fc94e" data-name="Layer 2"><g id="b35231eb-3bf5-4e57-bff7-89bf00e70d94" data-name="dashboard_std"><polygon points="20.49 36.86 9.86 26.62 13.77 22.56 20.43 28.98 29.81 19.67 33.78 23.67 20.49 36.86" style="fill:#bcd2e4"/><path d="M36.91,43.09a21.49,21.49,0,0,0,1.32-28.74l1.66-1.66.38.38a1.21,1.21,0,0,0,1.71,0h0a1.21,1.21,0,0,0,0-1.71L38.91,8.29a1.21,1.21,0,0,0-1.71,0h0a1.21,1.21,0,0,0,0,1.71l.38.38L36,12A21.43,21.43,0,0,0,24.43,6.63V4h.9a2,2,0,0,0,2-2h0a2,2,0,0,0-2-2H18.09a2,2,0,0,0-2,2h0a2,2,0,0,0,2,2H19V6.59a21.46,21.46,0,0,0-12.54,6,.75.75,0,0,0-.14.12l-.12.13a21.52,21.52,0,0,0,0,30.21l.12.14.14.12a21.52,21.52,0,0,0,30.21,0l.13-.12A.75.75,0,0,0,36.91,43.09ZM34.08,38.4A1.5,1.5,0,1,0,32,40.51l1.61,1.61a18.45,18.45,0,0,1-10.52,4.37V44.21a1.5,1.5,0,1,0-3,0v2.28A18.43,18.43,0,0,1,9.54,42.12l1.6-1.61A1.49,1.49,0,1,0,9,38.4L7.42,40A18.49,18.49,0,0,1,3.05,29.48H5.33a1.5,1.5,0,1,0,0-3H3.05A18.52,18.52,0,0,1,7.42,16L9,17.58a1.5,1.5,0,1,0,2.11-2.12l-1.6-1.61A18.48,18.48,0,0,1,20.06,9.49v2.28a1.5,1.5,0,0,0,3,0V9.49a18.51,18.51,0,0,1,10.52,4.36L32,15.46a1.51,1.51,0,0,0,0,2.12A1.53,1.53,0,0,0,33,18a1.51,1.51,0,0,0,1.06-.44L35.69,16a18.51,18.51,0,0,1,4.36,10.52H37.77a1.5,1.5,0,0,0,0,3h2.28A18.48,18.48,0,0,1,35.69,40Z" style="fill:#ef4645"/></g></g></svg>