<svg xmlns="http://www.w3.org/2000/svg" viewBox="0 0 43.61 43.61"><title>leather_board_icon</title><g id="Layer_2" data-name="Layer 2"><g id="Layer_16" data-name="Layer 16"><circle cx="21.8" cy="21.8" r="21.8" style="fill:#ef4645"/><polygon points="22.17 12.92 24.52 17.68 29.78 18.45 25.98 22.15 26.87 27.39 22.17 24.91 17.47 27.39 18.37 22.15 14.57 18.45 19.82 17.68 22.17 12.92" style="fill:none;stroke:#fff;stroke-linecap:round;stroke-linejoin:round;stroke-width:1.63810896873474px"/><polygon points="33.69 21.69 34.83 24 37.38 24.37 35.54 26.17 35.97 28.71 33.69 27.52 31.41 28.71 31.84 26.17 30 24.37 32.55 24 33.69 21.69" style="fill:none;stroke:#fff;stroke-linecap:round;stroke-linejoin:round;stroke-width:0.901341492819804px"/><polygon points="10.88 21.69 12.02 24 14.57 24.37 12.72 26.17 13.16 28.71 10.88 27.52 8.59 28.71 9.03 26.17 7.18 24.37 9.73 24 10.88 21.69" style="fill:none;stroke:#fff;stroke-linecap:round;stroke-linejoin:round;stroke-width:0.901341492819804px"/></g></g></svg>