<svg xmlns="http://www.w3.org/2000/svg" width="33.39" height="33.789" viewBox="0 0 33.39 33.789"><defs><style>.a{fill:#fc2125;}</style></defs><g transform="translate(-109.59 -267.25)"><path class="a" d="M131.22,267.25h0Z" transform="translate(0 33.789)"/><path class="a" d="M312.06,267.25h0Z" transform="translate(-184.654 33.789)"/><path class="a" d="M163.9,267.25c.68.111,1.366.194,2.04.336a13.394,13.394,0,0,1,10.178,10.591,13.179,13.179,0,0,1-3.319,11.507c-.044.049-.088.1-.129.15a.387.387,0,0,0-.035.083c.684,1.184,1.376,2.381,2.067,3.578.478.828.949,1.659,1.434,2.482a.707.707,0,0,1,.023.858.724.724,0,0,1-.806.223c-1.462-.3-2.926-.593-4.422-.9-.165.482-.328.956-.488,1.431-.315.936-.633,1.872-.937,2.81a.965.965,0,0,1-.522.638h-.4a4.862,4.862,0,0,1-.511-.621q-1.808-3.1-3.593-6.221a.426.426,0,0,0-.461-.253c-.691.032-1.385.033-2.076,0a.447.447,0,0,0-.486.265q-1.751,3.061-3.528,6.107a1.071,1.071,0,0,1-.492.442c-.358.136-.668-.084-.814-.514q-.677-2-1.348-3.993c-.032-.093-.065-.186-.114-.326-.554.109-1.11.217-1.664.328l-2.907.581a.656.656,0,0,1-.706-.969c.037-.068.074-.135.113-.2l3.115-5.393c.07-.122.138-.247.2-.351-.458-.586-.934-1.135-1.345-1.729a13.37,13.37,0,0,1,6.406-20.123,12.792,12.792,0,0,1,3.463-.764,1.3,1.3,0,0,0,.218-.055Zm11.135,13.366a12.058,12.058,0,1,0-12.043,12.054A12.079,12.079,0,0,0,175.038,280.616Zm-9.311,13.1,2.916,5.046c.062-.158.1-.257.139-.358q.5-1.482,1-2.965c.219-.654.432-.772,1.107-.634,1.127.23,2.256.453,3.45.692l-2.7-4.68A13.552,13.552,0,0,1,165.727,293.716Zm-13.953,1.523c.131-.015.186-.017.238-.027l3.262-.657c.616-.125.833,0,1.036.6q.5,1.5,1,3c.037.109.082.215.142.371l2.776-4.809a13.549,13.549,0,0,1-5.9-2.9Z" transform="translate(-36.498)"/><path class="a" d="M361.535,617.175C360.553,615.476,361.6,617.017,361.535,617.175Z" transform="translate(-229.39 -318.413)"/><path class="a" d="M180.167,577.431l-3.262.657Z" transform="translate(-61.391 -282.876)"/><path class="a" d="M199.745,306.619A10.873,10.873,0,1,1,188.9,295.75,10.881,10.881,0,0,1,199.745,306.619Zm-20.426-.012a9.553,9.553,0,1,0,9.594-9.537A9.558,9.558,0,0,0,179.319,306.607Z" transform="translate(-62.39 -25.992)"/><path class="a" d="M227.181,334.073a4.989,4.989,0,0,1-.414.782.95.95,0,0,0-.194,1.037.929.929,0,0,0,.859.564,1.1,1.1,0,0,1,1.1,1.184c0,.429,0,.858,0,1.286a1.109,1.109,0,0,1-1.091,1.2.973.973,0,0,0-.788.406.9.9,0,0,0,.066,1.127,1.145,1.145,0,0,1-.093,1.768c-.279.281-.557.563-.84.839a1.1,1.1,0,0,1-1.6.069.937.937,0,0,0-1.03-.222.927.927,0,0,0-.584.907,1.11,1.11,0,0,1-1.1,1.065q-.742.028-1.484,0a1.107,1.107,0,0,1-1.093-1.069.925.925,0,0,0-.587-.905.937.937,0,0,0-1.03.226,1.1,1.1,0,0,1-1.572-.051q-.5-.48-.979-.98a1.1,1.1,0,0,1-.038-1.573.931.931,0,0,0-.631-1.6,1.114,1.114,0,0,1-1.12-1.24c0-.44-.007-.88,0-1.32a1.087,1.087,0,0,1,1.039-1.11.966.966,0,0,0,.923-.572.937.937,0,0,0-.224-1.058,1.1,1.1,0,0,1,.061-1.573c.321-.332.647-.66.98-.979a1.1,1.1,0,0,1,1.549-.046.941.941,0,0,0,1.63-.691,1.077,1.077,0,0,1,1.046-1.037,13.96,13.96,0,0,1,1.582,0,1.083,1.083,0,0,1,1.047,1.073.912.912,0,0,0,.57.883.929.929,0,0,0,1.033-.209,1.11,1.11,0,0,1,1.6.052,12.724,12.724,0,0,1,.949.963A5.14,5.14,0,0,1,227.181,334.073Zm-10.648,9.157a2.287,2.287,0,0,1,3.707,1.527h1.019a2.269,2.269,0,0,1,3.664-1.546l.748-.72A2.28,2.28,0,0,1,227.2,338.8v-1c-2.031-.7-2.53-1.92-1.543-3.7l-.7-.735c-1.72,1.03-2.993.5-3.73-1.537h-.979a2.305,2.305,0,0,1-3.719,1.546l-.726.722a2.2,2.2,0,0,1,.332,2.3,2.229,2.229,0,0,1-1.847,1.388v1.035a2.273,2.273,0,0,1,1.539,3.669Z" transform="translate(-94.26 -57.666)"/><path class="a" d="M260.16,381.357a3.643,3.643,0,1,1,3.628,3.665A3.653,3.653,0,0,1,260.16,381.357Zm5.966.018A2.323,2.323,0,1,0,263.8,383.7,2.329,2.329,0,0,0,266.126,381.375Z" transform="translate(-137.321 -100.748)"/></g></svg>