<svg xmlns="http://www.w3.org/2000/svg" viewBox="0 0 326.05 202.21"><title>subscription_2_icon</title><g id="Layer_2" data-name="Layer 2"><g id="Layer_14" data-name="Layer 14"><path d="M212.69,96.3a7.82,7.82,0,0,0-1.36-1.45c-.72-.56-1.49-1.61-1.26-1.95a25,25,0,0,1,2.4-1.94l1.16,2.87Z" style="fill:#f5833f"/><polygon points="231.47 62.83 250.42 55.31 261.02 65.53 243.01 72.56 231.47 62.83" style="fill:#004655"/><path d="M221.13,103.31l-7.54-9.69-.9,2.68s7.73,17.58,11.27,15.94C225.61,111.48,221.13,103.31,221.13,103.31Z" style="fill:#f5833f"/><path d="M244.72,71.71a4.56,4.56,0,0,0-1.43,6.37s-3.22-.59-3.92-1.55a2.66,2.66,0,0,0,.21.6s-3.78-.47-4.48-1.88c-1.43-2.9,2.05-2.72,3.56-5.74,2-3.93,5.05-7,9.41-4.85,0,0,6.1-.34,3.34,7.48s-.15,8.51-.15,8.51a3.63,3.63,0,0,1-1.17.07s-.46-.33-.48-.64a2,2,0,0,0,.07.65s-2.88-.48-4-1.91S243.88,73.26,244.72,71.71Z" style="fill:#44001c"/><path d="M239.4,84.3h0S239.37,84.3,239.4,84.3Z" style="fill:#f5833f"/><path d="M248.35,81.73c.11,1,.24,1.84.29,2.25s.72,5.58-.51,5.64-4.27,6.32-5.64,6.26c-1.53,0-2.89-11.58-3.09-11.58.39-.17,1.59-4,2-5.4.45-1.76.81-3.65.81-3.65l6.23.39.37,0a20.76,20.76,0,0,0-.51,2.4,2.89,2.89,0,0,0,0,.29A15.39,15.39,0,0,0,248.35,81.73Z" style="fill:#f5833f"/><path d="M241.33,74.62a18.05,18.05,0,0,1-.81-5.65c.15-1.75,2.94-6.72,8.93-4.18A3.07,3.07,0,0,1,252.31,66c1.11,1.27,2.54,3.76-1.07,8.59l-1.05,1.68Z" style="fill:#44001c"/><path d="M248.35,81.73c-4.35-1.28-6.2-6.3-6.2-6.3,1.84,0,4.24,1.33,6.12,2.63a2.89,2.89,0,0,0,0,.29A15.39,15.39,0,0,0,248.35,81.73Z" style="fill:#e16f28"/><path d="M248.66,80s-7.87-1.94-6.58-6.82,1.14-8.41,6.21-7.38,5.55,3.15,5.52,4.89S250.73,80.34,248.66,80Z" style="fill:#f5833f"/><path d="M251.89,66.59s-3.66,5.15-7.17,5.12S240,70.43,240,70.43a9.66,9.66,0,0,0,4.5-4.7S251,63.44,251.89,66.59Z" style="fill:#44001c"/><path d="M251.23,66.91a7.24,7.24,0,0,1,1.33,3c.06,1.34-.44,3.94.32,4.05,0,0,2.65-3.46,1.42-6.14C253,65,251.23,66.91,251.23,66.91Z" style="fill:#44001c"/><path d="M251.48,67.18s-3.11,5.59-7.77,6.41c0,0,5.12-2.58,6.52-6.44S251.48,67.18,251.48,67.18Z" style="fill:#44001c"/><path d="M247.43,76.83s.1.75.57.92a6.66,6.66,0,0,0,1.86.42,6.17,6.17,0,0,0,.6-.66A9.88,9.88,0,0,0,247.43,76.83Z" style="fill:#fff"/><path d="M244.49,151.44c-.1.42-.2.83-.29,1.24-.6,2.46-1.15,4.74-1.5,6.66-.45,2.48-.56,4.33,0,5.11,1.53,2,1.14,12.74.64,20.47-.3,4.6-.64,8.14-.64,8.14L240,195.92s-.88-4.57-2-10.11c-1.49-7.44-3.4-16.65-4.15-18.9-.6-1.79-1.46-9.42-2.23-17.21l-.12-1.17c-.13-1.36-.26-2.72-.38-4a68.67,68.67,0,0,1,.31-14.31,16.76,16.76,0,0,1,8.27-3.38c2.74-.24,5.32.64,6.59,4C248.12,135.71,246.24,144.17,244.49,151.44Z" style="fill:#f5833f"/><path d="M244.49,151.44c-3.8-2.75-9.16-7.64-11.1-15.66-.38-4,2.77-7.78,6.28-9,2.74-.24,5.32.64,6.59,4C248.12,135.71,246.24,144.17,244.49,151.44Z" style="fill:#ee9563"/><path d="M258.38,103l18.71,4.83V110s-18.62-.21-19.82-2.29S258.38,103,258.38,103Z" style="fill:#f5833f"/><path d="M277.09,175l-.88,3.61s-3.86-2-8.77-4.57c-7.64-4-17.82-9.48-19.81-11-1.32-1-3-6.49-4.66-12.68-2.4-9.24-4.51-20.07-4.51-20.07s3.55-13.64,13-5.29c5.69,5,4.8,14.63,4.18,22.12-.41,5-.71,9.08,1.17,10.14,2.71,1.51,9.27,7,13.9,12.43a31.43,31.43,0,0,1,4,5.57Z" style="fill:#f5833f"/><path d="M277.09,107.83a24.89,24.89,0,0,1,4.79-1.85c1.37-.17,3.66-.22,3.66,0a10.4,10.4,0,0,1-3.11,1.85c-.66.11-1.91,1-1.53,1.15s2.4-.36,2.43,0-1.23.57-1.45.84a2.59,2.59,0,0,1-2.21.44c-1.23-.16-2.58-.25-2.58-.25Z" style="fill:#f5833f"/><path d="M277.09,159.27c-12.09,17.39-43.25,19.34-43.25,19.34-5.07-18.47-3-65.17-1.83-82.53-.07-3,0-5.59.54-6.58.78-1.53,5-4.2,6.5-5.52a2.38,2.38,0,0,1,.65-.17c.23.8,3,10.33,3.32,10.13s5-9.25,5.51-10.32l1,0c.83,0,5.34.94,5.72,1.67.13.25,1.43,3.68,3,8.22v0c3.05,8.51,7.52,6.91,9.3,9.44,1.11,1.58.63,4.54-1.44,7.09a8.27,8.27,0,0,1-.56.64c-1.57,1.67-3.71,2.66-7.18,2.14a9.82,9.82,0,0,1-4-2.19C257.76,123.53,277.09,159.27,277.09,159.27Z" style="fill:#fff"/><path d="M239.91,83.37l-1.63.93s4.46,12.63,4.68,12.58,6.93-13.19,6.93-13.19l-1.37-.57L243,93.94Z" style="fill:#ef4440"/><path d="M253.84,67.08s-5.73-3.21-15.18,2.43l.4-1.55a5.22,5.22,0,0,1,2.55-3.24,14,14,0,0,1,6.77-1.48,5.78,5.78,0,0,1,5.11,3.16Z" style="fill:#117d95"/><path d="M225.31,71.2l-.14-.48c5.07-1.5,6.16-6.77,6.34-8a.41.41,0,0,1,.29-.32h0a.23.23,0,0,1,.28.25C231.84,64.07,230.6,69.63,225.31,71.2Z" style="fill:#74c69c"/><polygon points="225.17 70.72 224.49 70.72 224.75 71.54 225.31 71.2 225.17 70.72" style="fill:#d1a182"/><path d="M224.49,70.72s-.93.26-1.12,0c0,0,0,.79.31,1a2.55,2.55,0,0,0,1.07-.17Z" style="fill:#74c69c"/><path d="M240.25,84.5s1.49,2.75,7.45.25L243,93.94Z" style="fill:#74c69c"/><path d="M238.28,84.3s-.78,26.15-7.23,31.22a3.85,3.85,0,0,1-1.45.74c-3.26.83-5.63-1.11-7.23-3.8-2.23-3.73-3-8.91-2.6-10.11.72-2.27,2.37,1.75,5.85.65s4.42-15.12,6.85-17.17C233.1,85.3,238.28,84.3,238.28,84.3Z" style="fill:#fff"/><path d="M206.8,102.91a18.35,18.35,0,0,1-1.9-1.2,7.51,7.51,0,0,1-1.14-1,2.3,2.3,0,0,1-.4-.57s7.87-9.48,8.5-10.59,6.57-10.31,6.57-10.31a15,15,0,0,1,1.6.9c.32.21.67.46,1,.72a6.23,6.23,0,0,1,1.55,1.71s-8.65,8.76-9.26,10S206.8,102.91,206.8,102.91Z" style="fill:#74c69c"/><path d="M204.9,101.71a7.51,7.51,0,0,1-1.14-1,2.3,2.3,0,0,1-.4-.57s7.87-9.48,8.5-10.59,6.57-10.31,6.57-10.31a15,15,0,0,1,1.6.9c.32.21.67.46,1,.72-2.43,2.48-9,9.24-9.54,10.4S206.67,99,204.9,101.71Z" style="fill:#44bb8b"/><path d="M213,87.71s-2.32,2.25-2.59,3.79l2.43,1.94a15.82,15.82,0,0,0,2.8-3.62Z" style="fill:#ef4440"/><path d="M213.59,93.62a4.48,4.48,0,0,0-.19-2.06c-.35-.54-.38-2-.71-1.87s-.11,1.38-.32,2-.51,3.32.32,3.84S213.59,93.62,213.59,93.62Z" style="fill:#f5833f"/><path d="M211.23,89.79s-1-.15-1.31.49-.79,1.68-.13,2.1S211.23,89.79,211.23,89.79Z" style="fill:#f5833f"/><path d="M243.38,184.92c-.3,4.6-.64,8.14-.64,8.14L240,195.92s-.88-4.57-2-10.11C238,185.81,241.08,186.89,243.38,184.92Z" style="fill:#74c69c"/><path d="M245.53,197.19,244,198c-.54.2-1,.25-1.54.46a3.16,3.16,0,0,0-1.46,1.07c-.42,1.72-1,1.61-1,1.61l-6,.05c-.28-.14.2-1.35.43-1.58.57-.56,2.28-.28,2.9-2,.35-1,2.08-4.08,2.08-4.08h0c.06,0,.38-.09,2.12.27.9.19,1.27-1.64,1.27-1.64a1.79,1.79,0,0,1,1.26,1.19,7.3,7.3,0,0,0,1.74,2.11c.38.36.68.6.68.6S246.73,196.33,245.53,197.19Z" style="fill:#ef4440"/><path d="M277.09,175l-.88,3.61s-3.86-2-8.77-4.57a8.21,8.21,0,0,0,3.31-4.36,31.43,31.43,0,0,1,4,5.57Z" style="fill:#74c69c"/><path d="M282.09,176.4h0a1.56,1.56,0,0,1-1-1c-.23-.54-.3-1-.51-1.53l-.85-1.48c-.9-1.17-1.21-.9-1.21-.9s-.23.3-.58.7a7.13,7.13,0,0,1-2.06,1.79,1.87,1.87,0,0,0-.89.69,1.79,1.79,0,0,0-.26.61s1.84.32,1.68,1.23c-.32,1.75-.24,2.06-.21,2.12h0s3.13,1.64,4.13,2a7.78,7.78,0,0,1,3.29,2.34,1,1,0,0,0,.88.27c.47-.07,1.07-.22,1.21-.51Z" style="fill:#ef4440"/><path d="M241.78,102a.91.91,0,1,1,1.81,0,.91.91,0,0,1-1.81,0Z" style="fill:#004655"/><path d="M241.78,108.72a.91.91,0,1,1,1.81,0,.91.91,0,0,1-1.81,0Z" style="fill:#004655"/><path d="M266.12,110.09a8.27,8.27,0,0,1-.56.64c-1.57,1.67-3.71,2.66-7.18,2.14a9.82,9.82,0,0,1-4-2.19s-2.86-7.84-2.48-8.94,5.91,7.48,10.5,7.88A34,34,0,0,1,266.12,110.09Z" style="fill:#dde4e5"/><path d="M232.41,104l-1.36,11.52a3.85,3.85,0,0,1-1.45.74c-3.26.83-5.63-1.11-7.23-3.8,1.67.24,5.72.6,6.61-1.17C230.1,109.06,232.41,104,232.41,104Z" style="fill:#dde4e5"/><path d="M153.32,41.27a9.59,9.59,0,0,0,2-2.49,12.76,12.76,0,0,0,.34-3.87.44.44,0,0,0-.6.36c-.12.54-.34,1.77-.79,2s-1.46.22-1.7,1.49A3.59,3.59,0,0,0,153.32,41.27Z" style="fill:#f5833f"/><path d="M149.6,41.52s-1.48-3-1.18-4,4.84-2.06,5.44-1.6,0,6.11,0,6.11Z" style="fill:#f5833f"/><path d="M197.33,132.57s-.21,2.5.66,3.69,1.33,2.28,1.62,1.74-.47-2.42-.21-2.39.95,2.24,1.3,2.93,1.12,1.77,1.62,1.23-.47-5.68-.86-6.33-1.23-2.1-1.23-2.1Z" style="fill:#f5833f"/><polygon points="166.14 57.36 183.41 47.65 195.01 62.02 179.2 69.69 166.14 57.36" style="fill:#004655"/><path d="M173.39,61.94A3.61,3.61,0,0,1,172,64c-1,.55.58,2,.18,3.14s1.21,2.51,1.21,2.51L184.56,71a3.2,3.2,0,0,0,1.78-2.63c.15-1.92.32-4.31.32-4.31l-4.88-3.72-7,.33Z" style="fill:#44001c"/><path d="M135.93,43.34a22.09,22.09,0,0,1-.88-2.52,10.39,10.39,0,0,1-.33-1.78,3,3,0,0,1,.06-.82s14.37-3,15.78-3.55S164.34,30,164.34,30a18.35,18.35,0,0,1,.81,2,13.25,13.25,0,0,1,.4,1.42,7.3,7.3,0,0,1,.17,2.73s-14.56,1.73-16.07,2.46S135.93,43.34,135.93,43.34Z" style="fill:#74c69c"/><path d="M135.05,40.82a10.39,10.39,0,0,1-.33-1.78,3,3,0,0,1,.06-.82s14.37-3,15.78-3.55S164.34,30,164.34,30a18.35,18.35,0,0,1,.81,2,13.25,13.25,0,0,1,.4,1.42c-4.1.5-15.23,1.92-16.61,2.58S138.72,39.6,135.05,40.82Z" style="fill:#44bb8b"/><path d="M153,33.8s-3.84.37-5.23,1.6l.82,3.62a18.68,18.68,0,0,0,5.29-1.29Z" style="fill:#ef4440"/><path d="M156.49,201.19a12.49,12.49,0,0,1,.33-3.07c.32-.77,1.53-3.9,1.53-3.9h4.72A30.14,30.14,0,0,1,164,198c.05.93,0,3.18,0,3.18Z" style="fill:#74c69c"/><path d="M186.43,201.19a12.49,12.49,0,0,0-.33-3.07c-.33-.77-1.54-3.9-1.54-3.9h-4.71a29.77,29.77,0,0,0-.94,3.79c0,.93,0,3.18,0,3.18Z" style="fill:#74c69c"/><path d="M174.63,71.24a43.8,43.8,0,0,1-1.94,7.23l-5.7,2.8L175,97l10.95-9.89-3.63-7.09s-.35-7,.77-9.44S174.63,71.24,174.63,71.24Z" style="fill:#f5833f"/><path d="M174.5,71.94s1,3.92,3.86,4.28,4.06-2.8,4.06-2.8Z" style="fill:#e16f28"/><path d="M178.25,74.75c-2.09-.36-5.51-3.74-5-7.18l.83-5.39a2.16,2.16,0,0,1,2.3-2l8,1.22A2.18,2.18,0,0,1,186,64l-.78,5.08C184.64,72.7,180.64,75.16,178.25,74.75Z" style="fill:#f5833f"/><path d="M157.08,121.25c0-.63.82,25-.41,39.56-1.21,14.38,0,34.38,0,34.38a9.3,9.3,0,0,0,8.22,0s4.69-27.77,4.66-34.38c0-7,5.11-38.47,5.11-38.47Z" style="fill:#f16060"/><path d="M186.26,195.19a9.33,9.33,0,0,1-8.23,0s-4.68-27.77-4.66-34.38c0-3-.89-10.29-1.94-17.76-1.45-10.22-3.16-20.7-3.16-20.7l18.27-1.15s-1.51,25.24-.27,39.61S186.26,195.19,186.26,195.19Z" style="fill:#f16060"/><path d="M176.54,67.93c-.78-.12-2.32-.53-2.38-1.93a1.23,1.23,0,0,1,.39-1,1.47,1.47,0,0,1,1.21-.31l2.39.37a1.06,1.06,0,0,1,.89.54,1.59,1.59,0,0,1-.25,1.34A1.76,1.76,0,0,1,177,68,3.36,3.36,0,0,1,176.54,67.93Zm-.8-3.1a1.33,1.33,0,0,0-1.09.27,1.09,1.09,0,0,0-.33.89,1.75,1.75,0,0,0,1.35,1.56,4.89,4.89,0,0,0,1.32.27h0c.66.1,1.18-.21,1.66-1,.1-.17.43-.77.24-1.19a.94.94,0,0,0-.77-.44Z" style="fill:#293f68"/><path d="M182.06,68.78l-.44-.09c-.72-.11-1.17-.61-1.41-1.55a1.58,1.58,0,0,1,.17-1.36,1.07,1.07,0,0,1,1-.24l2.4.37a1.43,1.43,0,0,1,1.06.66,1.2,1.2,0,0,1,.06,1.08C184.42,69,182.84,68.9,182.06,68.78Zm-.7-3.08a.92.92,0,0,0-.87.19c-.31.34-.17,1-.12,1.21.21.88.62,1.33,1.28,1.44h0a5.12,5.12,0,0,0,1.34.14,1.74,1.74,0,0,0,1.75-1.08,1,1,0,0,0-.05-.95,1.3,1.3,0,0,0-.95-.59Z" style="fill:#293f68"/><path d="M178.74,66.27a.11.11,0,0,1-.08-.07.1.1,0,0,1,.07-.12,2.26,2.26,0,0,1,1.81.28.09.09,0,0,1,0,.13.08.08,0,0,1-.13,0,2.14,2.14,0,0,0-1.65-.25Z" style="fill:#293f68"/><path d="M176.63,81.26l-5.4-2.34s-2.79,22.19.94,23.57c0,0,10.63-18.88,9.9-21.3Z" style="fill:#74c69c"/><path d="M173.22,77.52a5.27,5.27,0,0,0-2.32,1s1.16,3.76,4.23,4.88l1.32-2.16A6.57,6.57,0,0,1,173.22,77.52Z" style="fill:#44bb8b"/><path d="M176.45,81.26s5-.19,5.78-2.62a4.13,4.13,0,0,1,1,2.75s-1.6,2.4-5.57,2.43Z" style="fill:#44bb8b"/><path d="M176.87,71a16.19,16.19,0,0,1,3.85.59,2.28,2.28,0,0,1-1.88.8C177.77,72.21,177,71.69,176.87,71Z" style="fill:#feebdd"/><path d="M157.93,63.09c-2.43,1.53-5.74,3.61-8.45,5.24a11.18,11.18,0,0,1-.29-1.23c-.89-5.72.41-25.58.41-25.58a5.55,5.55,0,0,1,1.83-.53,2.48,2.48,0,0,1,2.43,1S156.92,59.5,157.93,63.09Z" style="fill:#f5833f"/><path d="M200.9,132.17l-1.84.76a5.37,5.37,0,0,1-7-3.32c-1.29-4-1.42-8.27-1.9-11.8a37,37,0,0,0-1.55-8.11h0l1.84,61.74c-27.55,1.95-41-13.89-41-13.89-.71-16.71,6-54.37,8.4-67.42-1.18-2.65-9.51-10.27-10.9-17.74-.65-3.47,1.38-5.92,3.84-7.58a22.59,22.59,0,0,1,6.88-2.91l8.91,11.9a5.82,5.82,0,0,1,.74,1c.69,1.4,4.26,3.72,4.26,3.72s.38,20.07,1.11,20.71c1-.4,8.07-14.47,9.63-19.15a51.66,51.66,0,0,1,7.19,2.57S194.3,85.2,195,96.42c.58,9.51,6.39,21.66,7.71,32.69A2.93,2.93,0,0,1,200.9,132.17Z" style="fill:#fff"/><path d="M170.54,77.81s.65,19.39,1.48,24.24l12.37-21.36-1.71-.63-9.77,17.7-1-19.26Z" style="fill:#ef4440"/><path d="M173.22,77.06a5.27,5.27,0,0,0-2.32,1s1.16,3.76,4.23,4.88l1.32-1.7A8.54,8.54,0,0,1,173.22,77.06Z" style="fill:#74c69c"/><path d="M176.45,81.26s5-.65,5.78-3.07a4.09,4.09,0,0,1,1,2.74s-1.6,2.41-5.57,2.44Z" style="fill:#74c69c"/><path d="M169.07,104.12a.92.92,0,1,1,.92.92A.92.92,0,0,1,169.07,104.12Z" style="fill:#004655"/><path d="M167.36,112.35a.91.91,0,0,1,1.82,0,.91.91,0,0,1-1.82,0Z" style="fill:#004655"/><path d="M167.39,66.46l.31-.29c-3.06-3.22-1.64-7.51-1.26-8.49a.33.33,0,0,0-.08-.36h0a.18.18,0,0,0-.3.07C165.63,58.52,164.2,63.09,167.39,66.46Z" style="fill:#74c69c"/><polygon points="167.7 66.17 168.19 66.46 167.66 66.94 167.39 66.46 167.7 66.17" style="fill:#d1a182"/><path d="M168.19,66.46s.57.58.82.47c0,0-.32.58-.64.59a2.06,2.06,0,0,1-.71-.58Z" style="fill:#74c69c"/><path d="M173.68,63.11s2.14.14,2.77-.94c0,0,1.74.43,2.51-.22,0,0,2.68.54,2.75-.54,0,0,2,4.1,4.3,3.24s-3.59-5-3.59-5l-7.65,1Z" style="fill:#44001c"/><path d="M173.83,60l-.44,1.91s6-2.12,13.27,2.1L186.57,61a2.07,2.07,0,0,0-.75-1.55c-1.32-1.08-4.47-3.22-10.31-1.52A3,3,0,0,0,173.83,60Z" style="fill:#117d95"/><path d="M147.73,36.52a1.84,1.84,0,0,1,.13-1.7c.54-.76,4.07-1.93,4.4-1.31s.12,2.75-1,3.23S147.82,37,147.73,36.52Z" style="fill:#f5833f"/><path d="M157.81,90.13c-1.18-2.65-9.51-10.27-10.9-17.74-.65-3.47,1.38-5.92,3.84-7.58a13.78,13.78,0,0,0,2.12,10C156.14,79.53,157.81,90.13,157.81,90.13Z" style="fill:#004655"/><path d="M199.06,132.93a5.37,5.37,0,0,1-7-3.32c-1.29-4-1.42-8.27-1.9-11.8a37,37,0,0,0-1.55-8.11A70.67,70.67,0,0,1,194.68,123C197.58,131.22,196.67,132.42,199.06,132.93Z" style="fill:#dde4e5"/><path d="M91.07,152c1.1-1.73-8.19-20.84-3.2-31.48.62-1.32,12.2.66,12.2.66s2.36,26.86,1,34c-.93,5-2.78,19.85-3.77,28.12v.08c-.24,2-.43,3.55-.55,4.54a4.75,4.75,0,0,0,.26,2.21c.74,2,2.34,6.21,3.14,6.78,0,0-4.38,1.26-5.22.77s-3-8.22-3-8.22a3.83,3.83,0,0,0,.38-2.33c-.17-1.06-.42-2.7-.71-4.74h0C87.87,167.1,88.43,156.15,91.07,152Z" style="fill:#f5833f"/><path d="M66.32,186.31a3.81,3.81,0,0,0,1.18-2.05c.21-1,.56-2.67,1-4.67h0C70.38,164,74.78,153.91,78.7,151c1.64-1.23-.29-22.39,8.13-30.58,1-1,11.18,4.92,11.18,4.92s-7.28,26-11,32.16c-2.66,4.36-9.62,17.58-13.47,25h0c-.94,1.79-1.69,3.24-2.15,4.13a4.67,4.67,0,0,0-.54,2.16c0,2.15-.32,7.92.53,8.42a8,8,0,0,1,1.37,1s-4-.34-4.49-.37-3.54-9.61-3.6-9.8h0C65.24,187.32,65.86,186.72,66.32,186.31Z" style="fill:#f5833f"/><polygon points="62.64 191.52 61.64 197.4 62.17 197.79 65.32 193.25 62.64 191.52" style="fill:#44bb8b"/><path d="M62.75,192c3.44,1.8,3.94,7.79,4.49,9.09l6.27,0c.94-.32.57-1.66-.79-2.92,0,0-4-.34-4.49-.37s-3.54-9.61-3.6-9.8C63.19,189.56,61.79,191.46,62.75,192Z" style="fill:#74c69c"/><path d="M68.23,172.08c.28,7.51,15.21,6.07,15.21,6.07l2-9.55,1.31-6.34.43-2.1-.65-.31L77,155.34l-3-1.41-.12.37-5.12,16h0Z" style="fill:#f16060"/><path d="M68.79,170.35c4.31-4.44,16.63-1.75,16.63-1.75l1.31-6.34-.22-2.41L77,155.34l-3.1-1-5.12,16Z" style="fill:#ef4440"/><polygon points="90.83 195.45 91.65 201.06 92.56 201.06 92.98 196.71 90.83 195.45" style="fill:#44bb8b"/><path d="M90.83,195.45c1.91.88,4,4.59,5,5.61l7.91.05c1-.81-2.47-3.43-3.53-4.2,0,0-4.38,1.26-5.22.77s-3-8.22-3-8.22C91,191.27,89.43,194.8,90.83,195.45Z" style="fill:#74c69c"/><path d="M87.16,157.39l2,21.56c3.65,4.63,13.29,1.79,13.29,1.79s.73-17.81,1.11-18.51l-1.4-.42Z" style="fill:#f16060"/><path d="M87.16,157.39l2,21.56c.1-10.61,13.82-9.54,13.82-9.54l-.82-7.6Z" style="fill:#ef4440"/><polygon points="103.98 56.12 83.84 48.13 72.58 58.99 91.72 66.46 103.98 56.12" style="fill:#004655"/><path d="M94.55,59.79s0,2.4,1.8,3.15c3.65,1.54.18,3.34,3.75,5.87.83.58,1.42,4.2-4.28,4.73s-6.4,1-6.4,1a8.81,8.81,0,0,1-8.91-.08c-2.71-1.61.71-6.11-.54-7.26-1.68-1.54-1.9-6.59.54-8.67a21.06,21.06,0,0,1,6.34-3.3Z" style="fill:#44001c"/><path d="M110.53,65l.15-.51c-5.39-1.59-6.55-7.19-6.75-8.49a.4.4,0,0,0-.31-.35h0a.24.24,0,0,0-.29.26C103.58,57.44,104.91,63.34,110.53,65Z" style="fill:#74c69c"/><polygon points="110.67 64.5 111.39 64.5 111.12 65.37 110.53 65.01 110.67 64.5" style="fill:#d1a182"/><path d="M111.39,64.5s1,.28,1.2,0c0,0,0,.84-.33,1.06a2.65,2.65,0,0,1-1.14-.19Z" style="fill:#74c69c"/><path d="M95.78,75a4.26,4.26,0,0,1-2.16-2.49c-.65-1.78-1.22-3.71-1.22-3.71l-1.75.28L86,69.88l-.38.06a23,23,0,0,1,.85,2.77,14,14,0,0,1,.44,3.84A1.59,1.59,0,0,1,86,78c-.13.08,4.94,16.68,7.38,15.85C95.53,93.15,96,75,95.78,75Z" style="fill:#f5833f"/><path d="M86.88,76.55c2.81-1.14,5.52-7.72,5.52-7.72a3.54,3.54,0,0,0-1.75.28,10.66,10.66,0,0,0-4.2,3.6A14.37,14.37,0,0,1,86.88,76.55Z" style="fill:#e16f28"/><path d="M85.09,73.87s8.35-1.35,7.42-6.54-.46-8.85-5.83-8.21-6.05,2.81-6.16,4.62S82.89,74.09,85.09,73.87Z" style="fill:#f5833f"/><path d="M84.35,78.69s-14.09-4.24-15.09-5.42-3.44-16.83-3.44-19.08l-2,.29s-1.52,17.8.24,21.84,19.52,10.4,19.52,10.4Z" style="fill:#f5833f"/><path d="M95.36,74.83s-1.73,5.39-8.51,2L94,92.48l1.85-14Z" style="fill:#f16060"/><path d="M101.11,76.42s-.85,2.81,15.46,11.7l12-8.24,1.45,1.21S118.51,95,116.71,94.7s-14.19-8.46-14.19-8.46Z" style="fill:#f5833f"/><path d="M56.77,146a26.11,26.11,0,0,0,1.45,3.41c1.74,3.47,5.15,8.78,10.85,12,6.47,3.62,27.42,10.53,41.81,7.18,0,0-1.36-45.54-4.39-64.27-.07-.43-.14-.85-.21-1.25.88,3.36,5.38,4.47,7.23,3.85,4-1.37,5.46-4.52,5.65-7.86a22,22,0,0,0-2.59-10.87c-6.65-3.78-7.88-9.77-11.11-11.91-2.89-1.91-9.77-1.41-10.1-1.38l-1.51,15-7-13s-11.28-1-17.59-3.56c0,0-18.87,26.1,4.49,25.76,0,6-2.81,11.47-5.52,19.59S56.77,146,56.77,146Z" style="fill:#fff"/><path d="M86.9,70.09s-.09.85-.62,1.06a7.65,7.65,0,0,1-2.1.51,6.36,6.36,0,0,1-.7-.73A11.13,11.13,0,0,1,86.9,70.09Z" style="fill:#fff"/><path d="M65.87,54.2s.86-.6.41-2.25c-.31-1.1-.1-2-.34-2s-.44,1.46-.58,1.81-2-3.25-2.48-3-1.42,1.68.82,6.52Z" style="fill:#f5833f"/><path d="M128.6,79.88s1.28-3,1.71-3.67c.85-1.24,3.25-2,3.41-1.46s-1.55,1.35-1.62,2.62c0,.35.7-.33,1.14-.6.27-.16.43,0,.29.18-.71,1-1.09,2.08-1.77,2.47a9.2,9.2,0,0,0-1.71,1.67Z" style="fill:#f5833f"/><polygon points="95.36 74.83 93.85 89.8 86.88 76.55 84.35 76.56 94.6 95.21 97.23 74.75 95.36 74.83" style="fill:#ef4440"/><path d="M81.64,59.31s-2.45,2.88,5.26,4.29a3.8,3.8,0,0,1,3,4.87,4,4,0,0,0,5.25,5.07c3-.93-1.86-14.77-4.49-15S81.64,59.31,81.64,59.31Z" style="fill:#44001c"/><path d="M84.35,60s-2.48,1.77-2.69,3.2-.79,3.46-1.74,2a4,4,0,0,1,0-4.7C81,59.19,83.5,58.59,84,59.05A.84.84,0,0,1,84.35,60Z" style="fill:#44001c"/><path d="M80,59.15s4.73-4.07,14.78,1.92l.14-2.48c-.39-1.47-.86-1.46-2.21-2.17a14.85,14.85,0,0,0-7.19-1.58c-2.29,0-3.63-.27-4.67,1.77Z" style="fill:#117d95"/><path d="M142.6,87.61a22.72,22.72,0,0,0,1.67-2.09,9.47,9.47,0,0,0,.91-1.57,2.63,2.63,0,0,0,.22-.79s-12.55-7.6-13.69-8.62-11.4-9.05-11.4-9.05a17.4,17.4,0,0,0-1.45,1.65,12.7,12.7,0,0,0-.85,1.2,7.4,7.4,0,0,0-1.08,2.52s13.15,6.5,14.33,7.69S142.6,87.61,142.6,87.61Z" style="fill:#706680"/><path d="M144.27,85.52a9.47,9.47,0,0,0,.91-1.57,2.63,2.63,0,0,0,.22-.79s-12.55-7.6-13.69-8.62-11.4-9.05-11.4-9.05a17.4,17.4,0,0,0-1.45,1.65,12.7,12.7,0,0,0-.85,1.2c3.7,1.84,13.71,6.9,14.79,8S141.22,83.15,144.27,85.52Z" style="fill:#44bb8b"/><path d="M129.7,72.91s3.49,1.63,4.39,3.25l-2,3.14a18.78,18.78,0,0,1-4.56-3Z" style="fill:#ef4440"/><path d="M131.76,79.42a4,4,0,0,0,1.41-1c.53-.66,1.25-1.72.36-1.45s-2.46,1.38-3.06,1.48-.38.57-.42.7A7.37,7.37,0,0,0,131.76,79.42Z" style="fill:#f5833f"/><path d="M56.77,146a26.11,26.11,0,0,0,1.45,3.41,73.47,73.47,0,0,0,12.72-18C77.28,118.13,73.75,99,73.75,99c0,6-2.81,11.47-5.52,19.59S56.77,146,56.77,146Z" style="fill:#dde4e5"/><path d="M95.82,100.61a.63.63,0,0,0-.63-.63.63.63,0,0,0,0,1.26A.63.63,0,0,0,95.82,100.61Z" style="fill:#004655"/><path d="M95.82,112.07a.63.63,0,0,0-.63-.63.63.63,0,0,0,0,1.26A.63.63,0,0,0,95.82,112.07Z" style="fill:#004655"/><path d="M106.49,104.25c-.07-.43-.14-.85-.21-1.25.88,3.36,5.38,4.47,7.23,3.85,4-1.37,5.46-4.52,5.65-7.86-.43.23-7,3.6-10.07,1.62S104,94,104,93.9Z" style="fill:#dde4e5"/><path d="M239.08,42.75a6.9,6.9,0,0,1-4,1.28,6.32,6.32,0,0,1-3.28-1.57l-1.15,2.24s3,1.61,5.4,1a6.25,6.25,0,0,0,2.46-1.57A2.1,2.1,0,0,0,239.08,42.75Z" style="fill:#ef4440"/><path d="M238.82,38.2l3.1-1.46s-.13,6.59-5.46,8.85C236.46,45.59,239.68,40.93,238.82,38.2Z" style="fill:#f16060"/><path d="M42.7,102.69a6.83,6.83,0,0,1-4,1.28,6.24,6.24,0,0,1-3.27-1.57l-1.15,2.25s3,1.61,5.4,1a6.21,6.21,0,0,0,2.46-1.57A2.16,2.16,0,0,0,42.7,102.69Z" style="fill:#ef4440"/><path d="M42.44,98.14l3.1-1.45s-.13,6.58-5.47,8.84C40.07,105.53,43.29,100.88,42.44,98.14Z" style="fill:#f16060"/><path d="M178.65,11.26a5.59,5.59,0,0,1,7.88,1.53l3.71-1.59s-1.83-2.9-9-1.61C176.51,10.43,178.65,11.26,178.65,11.26Z" style="fill:#44bb8b"/><path d="M174.21,14.32s1.23-5.06,10.47-5.06c0,0-3.47.33-6.17,4.82Z" style="fill:#74c69c"/><path d="M130.17,20.22s-2.49-1.57-2.75-3.47c0,0-2.42.13-3,.91,0,0,1.12,3.15,2.42,3.74C126.89,21.4,129.84,21.59,130.17,20.22Z" style="fill:#74c69c"/><path d="M295.08,152.58s-2.49-1.57-2.75-3.47c0,0-2.42.13-2.95.92,0,0,1.12,3.14,2.42,3.73C291.8,153.76,294.75,154,295.08,152.58Z" style="fill:#74c69c"/><path d="M52.5,159.44S50,157.87,49.75,156c0,0-2.42.13-2.94.92,0,0,1.11,3.14,2.42,3.73C49.23,160.62,52.18,160.82,52.5,159.44Z" style="fill:#74c69c"/><rect width="326.05" height="202.21" style="fill:none"/></g></g></svg>