<svg xmlns="http://www.w3.org/2000/svg" viewBox="0 0 232.4 213.33">
    <title>subscription_1_icon</title>
    <g id="Layer_2" data-name="Layer 2">
        <g id="Layer_13" data-name="Layer 13">
            <path
                d="M232.29,103.37c-1.1-20.57-10.28-38.75-23-52.26s-28.69-22.75-45.26-30.22A282.06,282.06,0,0,0,117.49,4.62C100.59.33,82.59-2.39,64.78,3S29.43,23.49,24.45,43.25c-3,12.07-1.18,24.19,0,36.06,1.07,11.15,1.24,22.85-2.36,33.59-2.54,7.61-8,13.64-12.43,20.11-11.68,16.92-11.94,39.85-5,58.66,1.18,3.2,2.72,6.49,5.54,8.43,3.52,2.43,8.25,2.18,12.39,1.1,15-3.89,29.88-6,45.26-7.85,22.27-2.71,44.61-4.94,66.86-7.81l78.88-10.15C223.84,152.27,233.57,127.55,232.29,103.37Z"
                style="fill:#fcdfe2" />
            <path
                d="M25.9,19.83a101,101,0,0,0-8.46,13A42.88,42.88,0,0,0,13,48.26a124.32,124.32,0,0,0,1.39,34.39c.32,1.87,3.11.67,2.78-1.2a127.26,127.26,0,0,1-1.52-32,40.18,40.18,0,0,1,4-15.14,95.49,95.49,0,0,1,8.14-12.74C28.86,20,27,18.29,25.9,19.83Z"
                style="fill:#fcdfe2" />
            <path
                d="M224.32,157.1c-1.13,2.86-2.36,5.75-3.26,8.67a1.24,1.24,0,0,0,2.37.73c1.28-2.81,2.28-5.76,3.34-8.64C227.34,156.3,224.94,155.54,224.32,157.1Z"
                style="fill:#fcdfe2" />
            <path
                d="M229.23,150.56a1.25,1.25,0,0,0-.64-.79,1.53,1.53,0,0,0-1.91.79l-.39.88a1.72,1.72,0,0,0-.14,1.15,1.2,1.2,0,0,0,.63.79,1.51,1.51,0,0,0,1.9-.79l.4-.88A1.78,1.78,0,0,0,229.23,150.56Z"
                style="fill:#fcdfe2" />
            <ellipse cx="135.98" cy="194.41" rx="77.01" ry="6.64" style="fill:#706680" />
            <path
                d="M156.35,53.76a6.45,6.45,0,0,0-1.7-7.53c-1-.77-2.35-1.54-2.23-2.79a3.66,3.66,0,0,1,1.15-1.83,6.14,6.14,0,0,0,1.32-5.8c-.77-2.3-3-3.72-5.32-4.51a19,19,0,0,0-7.65-1c-5.29.42-6.75-4.21-10.24-7.28A11.61,11.61,0,0,0,118,22.26c-3.2,2.12-5.22,5.67-8.37,7.85-2.3,1.6-5.07,2.36-7.63,3.52-4.27,1.92-8.21,5.28-9.43,9.81-1,3.73-.06,7.83-1.35,11.48-1.4,3.92-5,6.5-7.79,9.63a21.27,21.27,0,0,0-5.36,15.87c.31,3,1.33,5.87,1.21,8.85-.14,3.25-1.63,6.37-1.44,9.62.21,3.87,2.86,7.31,6.15,9.35s7.19,2.9,11,3.45a153.34,153.34,0,0,0,17,1.22c6.61.21,13.23.35,19.85.27,4.17-.05,8.48-.22,12.22-2.07a1.93,1.93,0,0,0,1.26-2.44c-.31-2.35,4.68-2.83,3.48-4.87-5.55-9.39,1.52-10,.9-15.21-.45-3.76-1.95-7.55-1.62-9.85.29-2,2.53-3.39,3.41-5.19,3.11-6.39-4.43-12.15,1.38-16.28a11.76,11.76,0,0,0,3-2.67A5.86,5.86,0,0,0,156.35,53.76Z"
                style="fill:#7b2a32" />
            <path
                d="M150.57,45.41a.84.84,0,0,1-.58-.64.87.87,0,0,1,.66-1h0c.27-.05,6.62-1.48,6.51-6.94s-6.07-7.36-6.12-7.38h0a.86.86,0,0,1,.51-1.65c.07,0,7.25,2.18,7.37,9,.11,5.53-5.11,8.09-7.88,8.68A.82.82,0,0,1,150.57,45.41Z"
                style="fill:#7b2a32" />
            <path
                d="M80,106c9.08-5.93,20.47-13.93,23.84-18.79,5.85-8.45,6.87-27.55,6.87-27.55L129,71.14s-.83,5.37-1.31,10.41c-.38,3.9-.56,7.6,0,8.45a1.48,1.48,0,0,0,.55.42c3.94,2,14.38,12,22.07,14.58,1.69.56,7.28,33.16,7.28,33.16l-29-1.54L80.56,119.3C80.36,114.87,80.23,110.44,80,106Z"
                style="fill:#f79a87" />
            <path
                d="M115.28,75.22c0,.63-3.62,11,13,15.2a1.48,1.48,0,0,1-.55-.42c-.57-.85-.39-4.55,0-8.45A118.58,118.58,0,0,0,115.28,75.22Z"
                style="fill:#340a0f" />
            <path
                d="M149.49,57.27c-.79,3.43-.86,28.76-19,29.58-7,.31-14.19-4.42-17.88-11.08-1.69-3.06-2.64-4.26-2.5-7.83,0,0-7.67-6.61-1.08-12.6,2.32-2.11,4.49-.21,5.82,1.6a1.12,1.12,0,0,0,2-.38c.5-1.91,1.31-4.37,2.41-5.63a5.08,5.08,0,0,1,5.32-1.5,8,8,0,0,0,6.23-.84,5.11,5.11,0,0,1,3.89-.4,8.63,8.63,0,0,0,8-2.2c2.34-2.29,3.71-1.36,5.84-.49C148.49,45.5,150.52,52.77,149.49,57.27Z"
                style="fill:#f79a87" />
            <path
                d="M129.35,60a1.27,1.27,0,0,0-1-.59l-.13,0h-.1c-1.41-.07-2.13,1.78-1.64,3a1.12,1.12,0,0,0,.33.7,1.3,1.3,0,0,0,.74.31l.06,0a1.24,1.24,0,0,0,1.49-.6A2.19,2.19,0,0,0,129.35,60Z"
                style="fill:#0e1216" />
            <path
                d="M147.28,63.9a1.64,1.64,0,0,0-2.35-.61,1.16,1.16,0,0,0-.21.16,1.24,1.24,0,0,0-.41.75s0,.07,0,.1v0a3.39,3.39,0,0,0,.22,1.55,1.51,1.51,0,0,0,2.41.3A1.94,1.94,0,0,0,147.28,63.9Z"
                style="fill:#0e1216" />
            <path
                d="M137.7,71.79a.88.88,0,0,0-.88-.89l-1.44,0a.94.94,0,0,0-.92.9.9.9,0,0,0,.88.9l1.44,0A1,1,0,0,0,137.7,71.79Z"
                style="fill:#d26251" />
            <path
                d="M133.27,54.33c-1.25,0-2.48-.29-3.74-.27s-2.55.2-3.83.27-1.2,1.86,0,1.8,2.56-.25,3.83-.27,2.49.22,3.75.27A.9.9,0,0,0,133.27,54.33Z"
                style="fill:#7b2a32" />
            <path
                d="M150.23,59.84a5.22,5.22,0,0,0-2.17-2.12c-1-.6-2.06.85-1.09,1.46a3.69,3.69,0,0,1,1.59,1.38C149.06,61.59,150.73,60.88,150.23,59.84Z"
                style="fill:#7b2a32" />
            <path d="M138.43,76.94s-3,5.31-6.88,4.77c-4.79-.67-5.06-7.88-5.06-7.88Z"
                style="fill:#fff" />
            <path
                d="M97.14,159.68c18.32,3.24,47.4,1.63,49.42,2.12s10.84,6.4,12,9.08-10.07,19.74-14.13,18.61-42.85-11.28-47.25-16.26S97.14,159.68,97.14,159.68Z"
                style="fill:#be2c34" />
            <path
                d="M147.38,98.12c5.78,4.12,8,6.71,9.55,20.73s.91,36.85-2.26,39.33.38,8.93-10.28,9.61-55.58-9.68-55.58-9.68-15.22,1.2-19,0-10.55-6-6.63-25.17S74.94,88.33,82.33,85.76c7.73-2.68,13.56-2.71,22.28-.61,0,0,6.43,23.41,16.38,24.43,8.66.88,10.4-16.84,10.4-16.84S144.89,96.35,147.38,98.12Z"
                style="fill:#fff" />
            <path
                d="M98.76,145.28a.78.78,0,0,1-.22,0l-1.79-.64c-5.57-2-18.62-6.71-24.6-6.11a.68.68,0,0,1-.73-.6.67.67,0,0,1,.6-.73c6.27-.62,19,4,25.18,6.19L99,144a.67.67,0,0,1,.4.85A.65.65,0,0,1,98.76,145.28Z"
                style="fill:#dde4e5" />
            <path
                d="M82.58,140a.66.66,0,0,1-.59-1c.07-.13,6.62-12.67,8.39-25.36a.68.68,0,0,1,.75-.56.66.66,0,0,1,.57.75c-1.8,12.92-8.47,25.66-8.53,25.79A.67.67,0,0,1,82.58,140Z"
                style="fill:#dde4e5" />
            <path
                d="M144.39,154.78a.58.58,0,0,1-.19,0,.66.66,0,0,1-.45-.82,132.43,132.43,0,0,0,4.31-32.3.67.67,0,0,1,1.33,0A133.16,133.16,0,0,1,145,154.3.66.66,0,0,1,144.39,154.78Z"
                style="fill:#dde4e5" />
            <path
                d="M145.26,150.84a.69.69,0,0,1-.39-.12.67.67,0,0,1-.16-.93,17.25,17.25,0,0,1,11.93-6.4.68.68,0,0,1,.73.6.66.66,0,0,1-.6.72,16.16,16.16,0,0,0-11,5.85A.68.68,0,0,1,145.26,150.84Z"
                style="fill:#dde4e5" />
            <path
                d="M121.06,146.86h-.13a.66.66,0,0,1-.52-.78c0-.22,4.32-21.9,2.26-35.49a.67.67,0,0,1,.55-.76.68.68,0,0,1,.76.56c2.1,13.82-2.22,35.73-2.27,36A.65.65,0,0,1,121.06,146.86Z"
                style="fill:#dde4e5" />
            <path
                d="M89,159.31c-2-5.88.9-13.11,9.72-15.26,3.89-.94-6,14.43-7.46,15.26A1.82,1.82,0,0,1,89,159.31Z"
                style="fill:#dde4e5" />
            <path
                d="M131.44,158.8c1-5.94.17-7.37-.68-8.63s-7.23-1.2-7.51-1.43.27-2.32-2-3.31a3.1,3.1,0,0,0-3.73,1.22s-.28-2.14-3.56-2.6-6.38,2.17-7.57,3.06-9.51-2.19-10.55-2.06-5.18,2.14-6.8,7.09a9.38,9.38,0,0,0-.52,4.69c0,.39,5.83.33,7.3.39s8.42.23,9.33.34.72.62,5,2.12,9,.65,9.64,0,.79-1.89,1.75-2,3.79.85,4.64,0,.11-3.22.11-3.22a4.61,4.61,0,0,1,1.92.28c.51.34.34,3.22.91,3.9S131.35,159.34,131.44,158.8Z"
                style="fill:#f79a87" />
            <path
                d="M120.94,154.37a2,2,0,0,1-.35,0c-2.17-.3-2.53-1.72-2.57-6.14a.45.45,0,0,1,.44-.45h0a.45.45,0,0,1,.45.44c0,4.62.49,5.1,1.8,5.28a1.59,1.59,0,0,0,1.23-.35,2.61,2.61,0,0,0,.9-1.68.45.45,0,0,1,.48-.41.45.45,0,0,1,.41.48,3.54,3.54,0,0,1-1.24,2.3A2.44,2.44,0,0,1,120.94,154.37Z"
                style="fill:#d26251" />
            <path
                d="M123.9,175.27c13,4.09,30.62,9.51,37.55,9.21s30.15-12.36,33.76-13.41,5.73,2.35,6.48,8.79-.6,8.14-6.33,10-27.3,2.31-29,2-33.22,2.56-36.23,2.26-15.15-5-13.76-8.23,7.55-10,7.55-10Z"
                style="fill:#ebd2b5" />
            <path
                d="M121.09,158.38a3.56,3.56,0,0,1-2.56-.85,2.4,2.4,0,0,1-.73-1.82,2.18,2.18,0,0,1,.71-1.52,3,3,0,0,1,2.16-.73c1.34.07,6,.89,6.24.92a.45.45,0,0,1,.36.52.44.44,0,0,1-.51.36c-.05,0-4.85-.85-6.13-.91a2.09,2.09,0,0,0-1.52.49,1.25,1.25,0,0,0-.42.9,1.52,1.52,0,0,0,.45,1.15,3,3,0,0,0,2.3.6.44.44,0,1,1,0,.88Z"
                style="fill:#d26251" />
            <path
                d="M166.34,151.85c10.18-5.95,15.31-8.81,21.79-5.65s9.34,6.45,9.8,11.74-9.5,15.69-16.43,23.23-6.09,9.5-8.8,11.45-26.85-17-25.15-20.47S166.34,151.85,166.34,151.85Z"
                style="fill:#f05259" />
            <path
                d="M169.29,154.65a.75.75,0,0,1-.53-1.28c.2-.2,5.05-5,10.35-5.91a.75.75,0,1,1,.25,1.48c-4.82.81-9.49,5.45-9.54,5.49A.73.73,0,0,1,169.29,154.65Z"
                style="fill:#be2c34" />
            <path
                d="M112.13,154a.46.46,0,0,1-.5-.44.43.43,0,0,1,.47-.44c.54,0,1.41-.05,1.64-1.87.28-2.33-.36-5-2.43-5.81a.44.44,0,0,1,.31-.83c2.52,1,3.32,4.07,3,6.74S112.71,154,112.13,154Z"
                style="fill:#d26251" />
            <path
                d="M144.87,167.23c-7.53-.16-17.78.25-18.76-1.66s28.56-16.32,32-17.37,15.6,1.63,16.73,2-9.19,8.39-11.08,9.37S144.87,167.23,144.87,167.23Z"
                style="fill:#2c2f31" />
            <path
                d="M168.41,187.1c-4.22-3.35-16.69-12.72-20.65-15.34a3.85,3.85,0,0,0-.21.39c-1.61,3.29,19.76,20.31,24.48,20.6C172.58,191.62,172.91,190.67,168.41,187.1Z"
                style="fill:#be2c34" />
            <path
                d="M116.13,154.44H116a2.39,2.39,0,0,1-2.23-1.84.44.44,0,1,1,.86-.2,1.51,1.51,0,0,0,1.4,1.16c.88,0,1.6-.66,2-1.85a.45.45,0,0,1,.56-.29.44.44,0,0,1,.28.56A3,3,0,0,1,116.13,154.44Z"
                style="fill:#d26251" />
            <path
                d="M165.37,158.41c-6.4-.45-10.16-1.6-11.23-.47a1.45,1.45,0,0,0,0,2.13s-2.78-2.39-5.2-1.31,2,5.6,2,5.6-3-3-4.78-3.31-1.78,1.73-1.81,2.26-1.1-1.33-2.08.35,5.81,10.05,8.67,11.25a3.65,3.65,0,0,0,4.75-1.51c.3-.52,2.56,1.13,3.91-.82s1-2.79,2.87-3.09.83-3.62,1.81-3.47,2.33-1.13,2-3.54A30.27,30.27,0,0,0,165.37,158.41Z"
                style="fill:#f79a87" />
            <path
                d="M89.19,123.07h0a.66.66,0,0,1-.63-.7c0-.09.48-8.65-2.3-14.15a.66.66,0,1,1,1.18-.6c2.95,5.82,2.47,14.46,2.45,14.83A.66.66,0,0,1,89.19,123.07Z"
                style="fill:#dde4e5" />
            <path
                d="M128.6,174.08c-1.51,11.76-14.62,27.58-17.79,28.34S91.92,196.54,91,195.63c0,0,1.16,2.27-4.23,2.72s-11.87-.91-13.67-3.32a25.65,25.65,0,0,1-3.92-20.95c2.56-10.55,6.18-14.45,16.2-16.49s19.94,5.31,24.46,8S128.6,174.08,128.6,174.08Z"
                style="fill:#f05259" />
            <path
                d="M147.93,173.26c-6.57,5.58-13,12.88-17.82,14.69s-8.09-.45-12.79-1.81-9.22.15-11.33,3.16-4.37,19.45-1.36,21.71,6.79,1.35,9.05,0,10.4-.61,19.89-4.52,14.17-6.79,18.54-8.44,17.63-6.8,18.81-7.89C172.43,188.78,148.74,172.37,147.93,173.26Z"
                style="fill:#ffefda" />
            <path
                d="M111.83,213.33a.42.42,0,0,1-.4-.26.44.44,0,0,1,.22-.58c3.51-1.57,5.33-5.37,5.73-12,.32-5.29-.62-7.21-.63-7.23a.44.44,0,0,1,.78-.41c0,.09,1.08,2.1.73,7.7C118,205,117.06,211,112,213.3Z"
                style="fill:#ebd2b5" />
            <path
                d="M131.92,192.31h-.09a34.25,34.25,0,0,1-9.71-4.07.45.45,0,0,1,.45-.77,34.35,34.35,0,0,0,9.43,4,.44.44,0,0,1-.08.88Z"
                style="fill:#ebd2b5" />
            <path
                d="M94,198.35a.72.72,0,0,1-.4-.12c-7.52-4.73-12.84-15-11.78-18.59a.75.75,0,0,1,.93-.51.76.76,0,0,1,.51.94c-.79,2.67,4,12.37,11.14,16.89a.76.76,0,0,1-.4,1.39Z"
                style="fill:#be2c34" />
        </g>
    </g>
</svg>