<svg xmlns="http://www.w3.org/2000/svg" viewBox="0 0 60.79 50.14">
    <title>winner_icon</title>
    <g id="Layer_2" data-name="Layer 2">
        <g id="Layer_17" data-name="Layer 17">
            <path
                d="M52.46,4.49V0H8.26V4.49H0v10A11.65,11.65,0,0,0,11.64,26.16h3a22,22,0,0,0,13.56,6.48v7.72H24.81v5.07H21.67v4.71H39.06V45.43H35.91V40.36H32.54V32.64a22,22,0,0,0,13.55-6.48h3.06A11.65,11.65,0,0,0,60.79,14.52v-10ZM11.64,23.26A8.75,8.75,0,0,1,2.9,14.52V7.39H8.26v3.26a22,22,0,0,0,4,12.61Zm46.25-8.74a8.75,8.75,0,0,1-8.74,8.74H48.5a22,22,0,0,0,4-12.61V7.39h5.43Z"
                style="fill:#f48d26" />
        </g>
    </g>
</svg>